<?xml version="1.0" encoding="utf-8"?>
<!-- Generator: Adobe Illustrator 27.3.1, SVG Export Plug-In . SVG Version: 6.00 Build 0)  -->
<svg version="1.1" id="Layer_1" xmlns="http://www.w3.org/2000/svg" xmlns:xlink="http://www.w3.org/1999/xlink" x="0px" y="0px"
	 viewBox="0 0 1318 800" style="enable-background:new 0 0 1318 800;" xml:space="preserve">
<style type="text/css">
	.st0{fill-rule:evenodd;clip-rule:evenodd;fill:url(#SVGID_1_);}
	.st1{fill-rule:evenodd;clip-rule:evenodd;fill:url(#SVGID_00000171709135678413553840000009585074866567865992_);}
	
		.st2{opacity:0.558;fill-rule:evenodd;clip-rule:evenodd;fill:url(#SVGID_00000009583448163807091010000018309113203925322889_);enable-background:new    ;}
	
		.st3{opacity:0.503;fill-rule:evenodd;clip-rule:evenodd;fill:url(#SVGID_00000061433403292524321000000008858971306401561496_);enable-background:new    ;}
	
		.st4{opacity:0.558;fill-rule:evenodd;clip-rule:evenodd;fill:url(#SVGID_00000025434891610895239840000004778237371584232326_);enable-background:new    ;}
	
		.st5{opacity:0.558;fill-rule:evenodd;clip-rule:evenodd;fill:url(#SVGID_00000008856320304766814880000015254362378711834782_);enable-background:new    ;}
	
		.st6{opacity:0.387;fill-rule:evenodd;clip-rule:evenodd;fill:url(#SVGID_00000122678231079954264520000007383863857329065870_);enable-background:new    ;}
	
		.st7{opacity:0.211;fill-rule:evenodd;clip-rule:evenodd;fill:url(#SVGID_00000034072501599715161130000011050156111536470453_);enable-background:new    ;}
</style>
<linearGradient id="SVGID_1_" gradientUnits="userSpaceOnUse" x1="118.7076" y1="941.6332" x2="120.138" y2="939.7525" gradientTransform="matrix(-834.817 0 0 -532.83 100297.0391 501254.0312)">
	<stop  offset="0" style="stop-color:#FF52C1"/>
	<stop  offset="4.090000e-02" style="stop-color:#F952C5"/>
	<stop  offset="1" style="stop-color:#9952FF;stop-opacity:0"/>
</linearGradient>
<path class="st0" d="M834.8,0H425.6L0,376v156.8L834.8,0z"/>
<linearGradient id="SVGID_00000117667759037265102140000018225725559521003657_" gradientUnits="userSpaceOnUse" x1="118.5076" y1="942.5653" x2="120.1261" y2="940.3463" gradientTransform="matrix(-1057.3 0 0 434 126995.0078 -407732)">
	<stop  offset="0" style="stop-color:#FF52C1"/>
	<stop  offset="4.090000e-02" style="stop-color:#F952C5"/>
	<stop  offset="1" style="stop-color:#9952FF;stop-opacity:0"/>
</linearGradient>
<path style="fill-rule:evenodd;clip-rule:evenodd;fill:url(#SVGID_00000117667759037265102140000018225725559521003657_);" d="
	M1057.3,801l-641.2-0.1L0,494.7V367L1057.3,801z"/>
<linearGradient id="SVGID_00000039824330533668661310000015597052218194129580_" gradientUnits="userSpaceOnUse" x1="115.3547" y1="936.2717" x2="116.5965" y2="934.8659" gradientTransform="matrix(26.8701 26.8701 26.8701 -26.8701 -27255.3906 22630.1875)">
	<stop  offset="0" style="stop-color:#FF52C1"/>
	<stop  offset="1" style="stop-color:#9952FF"/>
</linearGradient>
<path style="opacity:0.558;fill-rule:evenodd;clip-rule:evenodd;fill:url(#SVGID_00000039824330533668661310000015597052218194129580_);enable-background:new    ;" d="
	M1002.8,567.3l22.6,22.6c1.2,1.2,1.2,3.1,0,4.2l-22.6,22.6c-1.2,1.2-3.1,1.2-4.2,0l-22.6-22.6c-1.2-1.2-1.2-3.1,0-4.2l22.6-22.6
	C999.7,566.1,1001.6,566.1,1002.8,567.3z"/>
<linearGradient id="SVGID_00000091696493887249236330000013115873375663431597_" gradientUnits="userSpaceOnUse" x1="119.4052" y1="937.6355" x2="120.647" y2="936.2297" gradientTransform="matrix(39.598 39.598 39.598 -39.598 -40575.2617 32474.5391)">
	<stop  offset="0" style="stop-color:#FF52C1"/>
	<stop  offset="1" style="stop-color:#9952FF"/>
</linearGradient>
<path style="opacity:0.503;fill-rule:evenodd;clip-rule:evenodd;fill:url(#SVGID_00000091696493887249236330000013115873375663431597_);enable-background:new    ;" d="
	M1281.7,66.1l35.4,35.4c1.2,1.2,1.2,3.1,0,4.2l-35.4,35.4c-1.2,1.2-3.1,1.2-4.2,0l-35.4-35.4c-1.2-1.2-1.2-3.1,0-4.2l35.4-35.4
	C1278.6,64.9,1280.5,64.9,1281.7,66.1z"/>
<linearGradient id="SVGID_00000173843616364988966040000005105383023550843270_" gradientUnits="userSpaceOnUse" x1="119.5946" y1="935.1922" x2="120.8364" y2="933.7864" gradientTransform="matrix(22.6274 22.6274 22.6274 -22.6274 -22931.4355 18501.7363)">
	<stop  offset="0" style="stop-color:#FF52C1"/>
	<stop  offset="1" style="stop-color:#9952FF"/>
</linearGradient>
<path style="opacity:0.558;fill-rule:evenodd;clip-rule:evenodd;fill:url(#SVGID_00000173843616364988966040000005105383023550843270_);enable-background:new    ;" d="
	M936.7,43.1l18.4,18.4c1.2,1.2,1.2,3.1,0,4.2l-18.4,18.4c-1.2,1.2-3.1,1.2-4.2,0l-18.4-18.4c-1.2-1.2-1.2-3.1,0-4.2l18.4-18.4
	C933.7,41.9,935.6,41.9,936.7,43.1z"/>
<linearGradient id="SVGID_00000101093288209635854090000007675088982459189160_" gradientUnits="userSpaceOnUse" x1="119.5946" y1="935.1922" x2="120.8364" y2="933.7864" gradientTransform="matrix(22.6274 22.6274 22.6274 -22.6274 -23162.4355 18624.7363)">
	<stop  offset="0" style="stop-color:#FF52C1"/>
	<stop  offset="1" style="stop-color:#9952FF"/>
</linearGradient>
<path style="opacity:0.558;fill-rule:evenodd;clip-rule:evenodd;fill:url(#SVGID_00000101093288209635854090000007675088982459189160_);enable-background:new    ;" d="
	M705.7,166.1l18.4,18.4c1.2,1.2,1.2,3.1,0,4.2l-18.4,18.4c-1.2,1.2-3.1,1.2-4.2,0l-18.4-18.4c-1.2-1.2-1.2-3.1,0-4.2l18.4-18.4
	C702.7,164.9,704.6,164.9,705.7,166.1z"/>
<linearGradient id="SVGID_00000140726759120138754810000012185855417246801793_" gradientUnits="userSpaceOnUse" x1="119.9845" y1="930.1619" x2="121.2263" y2="928.756" gradientTransform="matrix(12.0208 12.0208 12.0208 -12.0208 -11386.0439 10336.1104)">
	<stop  offset="0" style="stop-color:#FF52C1"/>
	<stop  offset="1" style="stop-color:#9952FF"/>
</linearGradient>
<path style="opacity:0.387;fill-rule:evenodd;clip-rule:evenodd;fill:url(#SVGID_00000140726759120138754810000012185855417246801793_);enable-background:new    ;" d="
	M1237.7,594.7l10.6,10.6c0.4,0.4,0.4,1,0,1.4l-10.6,10.6c-0.4,0.4-1,0.4-1.4,0l-10.6-10.6c-0.4-0.4-0.4-1,0-1.4l10.6-10.6
	C1236.7,594.3,1237.3,594.3,1237.7,594.7z"/>
<linearGradient id="SVGID_00000012431882814736846840000016084765781764578717_" gradientUnits="userSpaceOnUse" x1="119.3145" y1="937.6984" x2="120.1682" y2="936.4894" gradientTransform="matrix(37.4767 37.4767 37.4767 -37.4767 -39509.7812 31373.8145)">
	<stop  offset="0" style="stop-color:#FF52C1"/>
	<stop  offset="1" style="stop-color:#9952FF"/>
</linearGradient>
<path style="opacity:0.211;fill-rule:evenodd;clip-rule:evenodd;fill:url(#SVGID_00000012431882814736846840000016084765781764578717_);enable-background:new    ;" d="
	M96.5,737.4l11.7-11.7c2-2,5.1-2,7.1,0c2,2,2,5.1,0,7.1l-11.7,11.7l11.7,11.7c2,2,2,5.1,0,7.1c-2,2-5.1,2-7.1,0l-11.7-11.7
	l-11.7,11.7c-2,2-5.1,2-7.1,0c-2-2-2-5.1,0-7.1l11.7-11.7l-11.7-11.7c-2-2-2-5.1,0-7.1c2-2,5.1-2,7.1,0L96.5,737.4z"/>
</svg>
