<?xml version="1.0" encoding="utf-8"?>
<!-- Generator: Adobe Illustrator 27.3.1, SVG Export Plug-In . SVG Version: 6.00 Build 0)  -->
<svg version="1.1" id="Layer_1" xmlns="http://www.w3.org/2000/svg" xmlns:xlink="http://www.w3.org/1999/xlink" x="0px" y="0px"
	 viewBox="0 0 1080 1080" style="enable-background:new 0 0 1080 1080;" xml:space="preserve">
<style type="text/css">
	.st0{fill:none;stroke:#FFFFFF;stroke-width:30;stroke-miterlimit:10;}
	.st1{fill:#FFFFFF;}
</style>
<circle class="st0" cx="540" cy="540" r="514.81"/>
<path class="st1" d="M817.84,370.4c-20.84,9.06-42.9,15.02-65.47,17.71c23.72-13.89,41.55-35.95,50.16-62.05
	c-22.42,13.11-46.91,22.31-72.42,27.21c-21.71-22.75-51.8-35.6-83.25-35.54c-63,0-113.99,50.24-113.99,112.18
	c-0.04,8.62,0.94,17.2,2.94,25.58c-91.35-4.28-176.66-46.86-235.01-117.27c-10.12,17.07-15.48,36.54-15.5,56.38
	c0,38.9,20.29,73.28,50.94,93.43c-18.16-0.43-35.94-5.24-51.84-14.01v1.39c0,54.41,39.36,99.68,91.46,109.98
	c-9.8,2.61-19.89,3.93-30.03,3.94c-7.19,0.01-14.37-0.69-21.43-2.08c14.48,44.57,56.63,76.99,106.57,77.91
	c-40.57,31.27-90.39,48.17-141.61,48.04c-9.09-0.01-18.18-0.55-27.21-1.62c52.11,33.27,112.68,50.88,174.51,50.71
	c209.96,0,324.66-170.99,324.66-319.29c0-4.86-0.13-9.72-0.36-14.47C783.23,412.68,802.49,393,817.84,370.4z"/>
</svg>
