<?xml version="1.0" encoding="utf-8"?>
<!-- Generator: Adobe Illustrator 27.3.1, SVG Export Plug-In . SVG Version: 6.00 Build 0)  -->
<svg version="1.1" id="Layer_1" xmlns="http://www.w3.org/2000/svg" xmlns:xlink="http://www.w3.org/1999/xlink" x="0px" y="0px"
	 viewBox="0 0 1080 1080" style="enable-background:new 0 0 1080 1080;" xml:space="preserve">
<style type="text/css">
	.st0{fill:none;stroke:#FFFFFF;stroke-width:30;stroke-miterlimit:10;}
	.st1{display:none;fill:#FFFFFF;}
	.st2{fill:#FFFFFF;}
</style>
<circle class="st0" cx="540" cy="540" r="514.81"/>
<path class="st1" d="M817.84,370.4c-20.84,9.06-42.9,15.02-65.47,17.71c23.72-13.89,41.55-35.95,50.16-62.05
	c-22.42,13.11-46.91,22.31-72.42,27.21c-21.71-22.75-51.8-35.6-83.25-35.54c-63,0-113.99,50.24-113.99,112.18
	c-0.04,8.62,0.94,17.2,2.94,25.58c-91.35-4.28-176.66-46.86-235.01-117.27c-10.12,17.07-15.48,36.54-15.5,56.38
	c0,38.9,20.29,73.28,50.94,93.43c-18.16-0.43-35.94-5.24-51.84-14.01v1.39c0,54.41,39.36,99.68,91.46,109.98
	c-9.8,2.61-19.89,3.93-30.03,3.94c-7.19,0.01-14.37-0.69-21.43-2.08c14.48,44.57,56.63,76.99,106.57,77.91
	c-40.57,31.27-90.39,48.17-141.61,48.04c-9.09-0.01-18.18-0.55-27.21-1.62c52.11,33.27,112.68,50.88,174.51,50.71
	c209.96,0,324.66-170.99,324.66-319.29c0-4.86-0.13-9.72-0.36-14.47C783.23,412.68,802.49,393,817.84,370.4z"/>
<path class="st1" d="M652.48,576.15l13.96-90.93h-87.25V426.2c0-24.88,12.19-49.13,51.27-49.13h39.67v-77.42c0,0-36-6.14-70.41-6.14
	c-71.86,0-118.83,43.55-118.83,122.4v69.31H401v90.93h79.87v219.83h98.31V576.15H652.48z"/>
<g>
	<path class="st2" d="M655.59,308.8c63.76,0.19,115.41,51.84,115.61,115.61v231.18C771.01,719.35,719.36,771,655.59,771.2H424.41
		C360.65,771.01,309,719.36,308.8,655.59V424.41c0.19-63.76,51.84-115.41,115.61-115.61H655.59 M655.59,262.57H424.41
		c-89.01,0-161.84,72.83-161.84,161.84v231.18c0,89.01,72.83,161.84,161.84,161.84h231.18c89.01,0,161.84-72.83,161.84-161.84
		V424.41C817.43,335.4,744.6,262.57,655.59,262.57L655.59,262.57z"/>
	<path class="st2" d="M690.27,424.41c-19.15,0-34.68-15.52-34.68-34.68c0-19.15,15.52-34.68,34.68-34.68
		c19.15,0,34.68,15.52,34.68,34.68c0.04,19.11-15.42,34.64-34.53,34.68C690.37,424.41,690.31,424.41,690.27,424.41z M540,447.52
		c51.08,0,92.48,41.4,92.48,92.48s-41.4,92.48-92.48,92.48s-92.48-41.4-92.48-92.48C447.57,488.95,488.95,447.57,540,447.52
		 M540,401.29c-76.61,0-138.71,62.1-138.71,138.71S463.39,678.71,540,678.71S678.71,616.61,678.71,540S616.61,401.29,540,401.29z"/>
</g>
</svg>
